<?xml version="1.0" encoding="UTF-8" standalone="no"?>
<!DOCTYPE svg PUBLIC "-//W3C//DTD SVG 1.1//EN" "http://www.w3.org/Graphics/SVG/1.1/DTD/svg11.dtd">
<svg version="1.1" xmlns="http://www.w3.org/2000/svg" xmlns:xlink="http://www.w3.org/1999/xlink" preserveAspectRatio="xMidYMid meet" viewBox="28.84263152376583 233.61931356012408 110.92770028153579 23.284376690207836" width="106.93" height="19.28"><defs><path d="M31.74 243.11L29.86 243.13L29.84 241.36L31.72 241.33C31.7 240.04 31.69 239.33 31.69 239.18C31.68 237.98 31.97 237.11 32.56 236.55C33.16 235.99 34.03 235.71 35.18 235.69C35.26 235.69 35.68 235.69 36.43 235.68L36.45 237.48C35.89 237.49 35.59 237.49 35.52 237.49C34.89 237.5 34.44 237.64 34.18 237.91C33.91 238.16 33.79 238.59 33.79 239.21C33.79 239.35 33.8 240.05 33.82 241.31L36.87 241.27L36.89 243.05L33.84 243.08L33.96 253.71L31.86 253.73L31.74 243.11ZM40.57 253.41C39.88 253.07 39.37 252.6 39.03 252.03C38.69 251.45 38.51 250.81 38.51 250.13C38.49 248.86 38.96 247.88 39.92 247.19C40.88 246.5 42.19 246.14 43.86 246.12C44.08 246.12 45.2 246.1 47.21 246.08C47.21 245.99 47.21 245.94 47.21 245.93C47.2 244.85 46.9 244.03 46.33 243.49C45.76 242.93 45 242.66 44.05 242.67C43.23 242.68 42.52 242.89 41.93 243.32C41.35 243.72 40.99 244.32 40.85 245.1C40.63 245.11 38.91 245.13 38.7 245.13C38.77 244.23 39.06 243.47 39.57 242.84C40.1 242.22 40.75 241.75 41.53 241.42C42.31 241.08 43.14 240.9 44.03 240.89C45.76 240.87 47.06 241.32 47.94 242.25C48.83 243.15 49.29 244.37 49.31 245.91C49.31 246.41 49.34 248.96 49.4 253.53L47.52 253.55C47.43 252.22 47.38 251.48 47.37 251.33C47.03 252.03 46.52 252.64 45.84 253.15C45.18 253.64 44.28 253.89 43.15 253.9C42.12 253.92 41.26 253.75 40.57 253.41ZM45.5 251.48C46.08 251.05 46.51 250.51 46.8 249.84C47.1 249.17 47.24 248.46 47.23 247.73C47.23 247.73 47.23 247.72 47.23 247.71C45.32 247.73 44.27 247.74 44.05 247.74C42.82 247.76 41.95 247.98 41.44 248.42C40.94 248.84 40.7 249.37 40.71 250.01C40.71 250.66 40.95 251.18 41.42 251.57C41.91 251.95 42.59 252.13 43.45 252.12C44.25 252.12 44.94 251.9 45.5 251.48ZM55.04 252.97C54.1 252.43 53.35 251.68 52.79 250.72C52.24 249.74 51.97 248.6 51.95 247.3C51.94 246 52.19 244.86 52.71 243.89C53.25 242.9 53.98 242.14 54.91 241.59C55.85 241.03 56.92 240.74 58.1 240.73C59.57 240.71 60.8 241.08 61.81 241.84C62.84 242.59 63.49 243.61 63.77 244.89C63.56 244.89 61.84 244.91 61.62 244.91C61.45 244.15 61.03 243.56 60.38 243.15C59.72 242.73 58.96 242.52 58.1 242.53C57.4 242.54 56.74 242.72 56.13 243.08C55.51 243.43 55.02 243.97 54.64 244.67C54.27 245.37 54.09 246.24 54.1 247.28C54.11 248.31 54.31 249.17 54.7 249.87C55.1 250.56 55.6 251.09 56.22 251.45C56.84 251.79 57.5 251.96 58.2 251.95C59.07 251.94 59.83 251.73 60.47 251.3C61.12 250.86 61.52 250.25 61.68 249.46C61.89 249.46 63.61 249.44 63.83 249.44C63.59 250.69 62.97 251.72 61.96 252.51C60.95 253.31 59.72 253.71 58.25 253.73C57.07 253.74 56 253.49 55.04 252.97ZM69.22 252.8C68.3 252.26 67.57 251.51 67.02 250.55C66.49 249.59 66.22 248.45 66.21 247.14C66.19 245.84 66.44 244.7 66.94 243.73C67.45 242.74 68.16 241.97 69.07 241.43C69.99 240.87 71.06 240.58 72.28 240.57C73.48 240.55 74.52 240.81 75.39 241.35C76.28 241.88 76.96 242.58 77.44 243.46C77.92 244.33 78.16 245.28 78.17 246.3C78.18 246.48 78.17 246.66 78.15 246.85C78.16 247.03 78.16 247.24 78.16 247.47C77.17 247.48 69.27 247.58 68.29 247.59C68.35 248.54 68.57 249.33 68.96 249.95C69.37 250.57 69.87 251.03 70.46 251.34C71.06 251.65 71.69 251.8 72.36 251.79C73.23 251.78 73.95 251.57 74.53 251.17C75.11 250.76 75.53 250.21 75.79 249.53C75.99 249.52 77.65 249.5 77.86 249.5C77.54 250.66 76.91 251.62 75.97 252.4C75.04 253.16 73.85 253.55 72.38 253.57C71.2 253.58 70.15 253.32 69.22 252.8ZM69.59 243.3C68.83 243.91 68.4 244.79 68.29 245.96C69.07 245.95 75.31 245.88 76.09 245.87C76.03 244.76 75.64 243.89 74.91 243.26C74.19 242.64 73.3 242.33 72.25 242.34C71.25 242.35 70.36 242.67 69.59 243.3ZM84.93 252.8C84.14 252.39 83.54 251.81 83.11 251.07C83.1 251.2 83.04 251.9 82.94 253.14L81.04 253.17L80.83 235.17L82.93 235.14C82.98 239.73 83.01 242.28 83.02 242.79C83.41 242.19 83.97 241.64 84.7 241.15C85.44 240.66 86.39 240.4 87.54 240.39C88.77 240.38 89.85 240.65 90.77 241.2C91.7 241.76 92.41 242.52 92.93 243.5C93.45 244.48 93.72 245.59 93.74 246.84C93.75 248.09 93.51 249.21 93 250.2C92.51 251.17 91.81 251.95 90.88 252.53C89.97 253.09 88.9 253.37 87.66 253.39C86.65 253.4 85.74 253.2 84.93 252.8ZM89.61 250.97C90.24 250.56 90.73 250 91.09 249.3C91.45 248.59 91.62 247.78 91.61 246.84C91.6 245.91 91.41 245.1 91.04 244.4C90.66 243.7 90.15 243.17 89.52 242.79C88.88 242.4 88.14 242.21 87.31 242.22C86.48 242.23 85.75 242.44 85.12 242.84C84.49 243.23 83.99 243.78 83.64 244.48C83.28 245.19 83.1 246.01 83.11 246.94C83.12 247.87 83.32 248.69 83.69 249.38C84.07 250.08 84.57 250.62 85.21 251.02C85.85 251.39 86.58 251.58 87.42 251.57C88.25 251.56 88.98 251.36 89.61 250.97ZM99.23 252.46C98.29 251.93 97.54 251.19 96.98 250.23C96.43 249.25 96.15 248.11 96.14 246.79C96.12 245.47 96.38 244.33 96.92 243.36C97.46 242.37 98.19 241.6 99.12 241.06C100.06 240.51 101.12 240.23 102.29 240.22C103.45 240.21 104.51 240.46 105.45 240.98C106.38 241.51 107.13 242.26 107.67 243.23C108.23 244.19 108.52 245.33 108.54 246.65C108.55 247.96 108.29 249.12 107.75 250.11C107.21 251.08 106.47 251.84 105.53 252.38C104.6 252.93 103.55 253.21 102.39 253.22C101.22 253.23 100.17 252.98 99.23 252.46ZM104.36 250.87C104.97 250.51 105.47 249.98 105.84 249.28C106.22 248.57 106.4 247.71 106.39 246.67C106.37 245.64 106.17 244.77 105.78 244.08C105.41 243.38 104.91 242.86 104.29 242.52C103.67 242.18 103.01 242.01 102.31 242.02C101.59 242.03 100.93 242.21 100.31 242.57C99.7 242.92 99.21 243.45 98.83 244.16C98.46 244.86 98.27 245.73 98.29 246.77C98.3 247.8 98.5 248.66 98.89 249.36C99.28 250.05 99.78 250.57 100.38 250.92C101.01 251.26 101.67 251.43 102.37 251.42C103.08 251.41 103.75 251.23 104.36 250.87ZM114.02 252.28C113.08 251.76 112.33 251.02 111.77 250.06C111.23 249.08 110.95 247.94 110.93 246.62C110.92 245.3 111.18 244.16 111.72 243.19C112.25 242.2 112.99 241.43 113.91 240.88C114.86 240.34 115.91 240.06 117.08 240.05C118.25 240.03 119.3 240.29 120.24 240.81C121.18 241.33 121.92 242.08 122.47 243.06C123.03 244.02 123.31 245.16 123.33 246.48C123.34 247.79 123.08 248.95 122.54 249.94C122.01 250.91 121.26 251.67 120.32 252.21C119.39 252.76 118.35 253.03 117.18 253.05C116.01 253.06 114.96 252.81 114.02 252.28ZM119.15 250.7C119.77 250.34 120.26 249.81 120.63 249.11C121.01 248.4 121.19 247.53 121.18 246.5C121.17 245.47 120.97 244.6 120.57 243.91C120.2 243.21 119.7 242.69 119.08 242.35C118.46 242.01 117.8 241.84 117.1 241.85C116.38 241.86 115.72 242.04 115.11 242.4C114.49 242.75 114 243.28 113.63 243.99C113.25 244.69 113.07 245.56 113.08 246.59C113.09 247.63 113.29 248.49 113.69 249.19C114.08 249.88 114.57 250.4 115.18 250.75C115.8 251.09 116.46 251.26 117.16 251.25C117.88 251.24 118.54 251.06 119.15 250.7ZM126.11 234.64L128.21 234.62L128.34 245.44L133.35 240.16L135.93 240.13L130.49 245.79L136.77 252.52L134.1 252.55L128.35 246.19L128.42 252.62L126.32 252.64L126.11 234.64Z" id="e16InbIwz7"></path></defs><g><g><use xlink:href="#e16InbIwz7" opacity="1" fill="#333333" fill-opacity="0.72"></use><g><use xlink:href="#e16InbIwz7" opacity="1" fill-opacity="0" stroke="#000000" stroke-width="1" stroke-opacity="0"></use></g></g></g></svg>