<svg width="19" height="108" viewBox="0 0 19 108" fill="none" xmlns="http://www.w3.org/2000/svg">
<path d="M18 105.6H7.375V107.475H5.6V105.6H3.45C2.25 105.6 1.375 105.3 0.824999 104.7C0.274999 104.1 -7.15256e-07 103.225 -7.15256e-07 102.075V100.825H1.8V101.75C1.8 102.383 1.93333 102.833 2.2 103.1C2.45 103.367 2.88333 103.5 3.5 103.5H5.6V100.45H7.375V103.5H18V105.6ZM18.3 94.3131C18.3 95.3464 18.125 96.2048 17.775 96.8881C17.425 97.5714 16.9583 98.0798 16.375 98.4131C15.7917 98.7464 15.1583 98.9131 14.475 98.9131C13.2083 98.9131 12.2333 98.4298 11.55 97.4631C10.8667 96.4964 10.525 95.1798 10.525 93.5131V90.1631H10.375C9.29167 90.1631 8.475 90.4464 7.925 91.0131C7.35833 91.5798 7.075 92.3381 7.075 93.2881C7.075 94.1048 7.28333 94.8131 7.7 95.4131C8.1 95.9964 8.69167 96.3631 9.475 96.5131V98.6631C8.575 98.5798 7.81667 98.2798 7.2 97.7631C6.58333 97.2298 6.11667 96.5714 5.8 95.7881C5.46667 95.0048 5.3 94.1714 5.3 93.2881C5.3 91.5548 5.76667 90.2548 6.7 89.3881C7.61667 88.5048 8.84167 88.0631 10.375 88.0631H18V89.9381L15.775 90.0631C16.475 90.4131 17.075 90.9298 17.575 91.6131C18.0583 92.2798 18.3 93.1798 18.3 94.3131ZM16.525 93.9881C16.525 93.1881 16.3167 92.5048 15.9 91.9381C15.4833 91.3548 14.9417 90.9131 14.275 90.6131C13.6083 90.3131 12.9083 90.1631 12.175 90.1631H12.15V93.3381C12.15 94.5714 12.3667 95.4464 12.8 95.9631C13.2167 96.4631 13.7417 96.7131 14.375 96.7131C15.025 96.7131 15.55 96.4798 15.95 96.0131C16.3333 95.5298 16.525 94.8548 16.525 93.9881ZM18.3 79.2127C18.3 80.396 18.0333 81.4627 17.5 82.4127C16.95 83.346 16.1917 84.0877 15.225 84.6377C14.2417 85.171 13.1 85.4377 11.8 85.4377C10.5 85.4377 9.36667 85.171 8.4 84.6377C7.41667 84.0877 6.65833 83.346 6.125 82.4127C5.575 81.4627 5.3 80.396 5.3 79.2127C5.3 77.746 5.68333 76.5127 6.45 75.5127C7.21667 74.496 8.24167 73.8544 9.525 73.5877V75.7377C8.75833 75.9044 8.16667 76.3127 7.75 76.9627C7.31667 77.6127 7.1 78.371 7.1 79.2377C7.1 79.9377 7.275 80.596 7.625 81.2127C7.975 81.8294 8.5 82.3294 9.2 82.7127C9.9 83.096 10.7667 83.2877 11.8 83.2877C12.8333 83.2877 13.7 83.096 14.4 82.7127C15.1 82.3294 15.6333 81.8294 16 81.2127C16.35 80.596 16.525 79.9377 16.525 79.2377C16.525 78.371 16.3167 77.6127 15.9 76.9627C15.4667 76.3127 14.8583 75.9044 14.075 75.7377V73.5877C15.325 73.8377 16.3417 74.471 17.125 75.4877C17.9083 76.5044 18.3 77.746 18.3 79.2127ZM18.3 65.0799C18.3 66.2632 18.0333 67.3132 17.5 68.2299C16.95 69.1465 16.1917 69.8715 15.225 70.4049C14.2583 70.9215 13.1167 71.1799 11.8 71.1799C10.5 71.1799 9.36667 70.9215 8.4 70.4049C7.41667 69.8882 6.65833 69.1715 6.125 68.2549C5.575 67.3215 5.3 66.2465 5.3 65.0299C5.3 63.8299 5.575 62.7965 6.125 61.9299C6.65833 61.0465 7.36667 60.3715 8.25 59.9049C9.13333 59.4382 10.0833 59.2049 11.1 59.2049C11.2833 59.2049 11.4667 59.2132 11.65 59.2299C11.8333 59.2299 12.0417 59.2299 12.275 59.2299V69.1049C13.225 69.0549 14.0167 68.8382 14.65 68.4549C15.2667 68.0549 15.7333 67.5632 16.05 66.9799C16.3667 66.3799 16.525 65.7465 16.525 65.0799C16.525 64.2132 16.325 63.4882 15.925 62.9049C15.525 62.3215 14.9833 61.8965 14.3 61.6299V59.5549C15.45 59.8882 16.4083 60.5299 17.175 61.4799C17.925 62.4132 18.3 63.6132 18.3 65.0799ZM7.075 65.0799C7.075 66.0799 7.38333 66.9715 8 67.7549C8.6 68.5215 9.48333 68.9632 10.65 69.0799V61.2799C9.53333 61.3299 8.65833 61.7132 8.025 62.4299C7.39167 63.1465 7.075 64.0299 7.075 65.0799ZM18.3 49.7965C18.3 50.8132 18.0917 51.7215 17.675 52.5215C17.2583 53.3048 16.675 53.9048 15.925 54.3215L18 54.5215V56.4215H-7.15256e-07V54.3215H7.65C7.05 53.9215 6.50833 53.3548 6.025 52.6215C5.54167 51.8715 5.3 50.9215 5.3 49.7715C5.3 48.5382 5.58333 47.4632 6.15 46.5465C6.71667 45.6298 7.49167 44.9215 8.475 44.4215C9.45833 43.9048 10.575 43.6465 11.825 43.6465C13.075 43.6465 14.1917 43.9048 15.175 44.4215C16.1417 44.9215 16.9083 45.6381 17.475 46.5715C18.025 47.4882 18.3 48.5632 18.3 49.7965ZM16.475 50.0215C16.475 49.1882 16.2833 48.4548 15.9 47.8215C15.5 47.1882 14.95 46.6882 14.25 46.3215C13.55 45.9548 12.7333 45.7715 11.8 45.7715C10.8667 45.7715 10.05 45.9548 9.35 46.3215C8.65 46.6882 8.10833 47.1882 7.725 47.8215C7.325 48.4548 7.125 49.1882 7.125 50.0215C7.125 50.8548 7.325 51.5882 7.725 52.2215C8.10833 52.8548 8.65 53.3548 9.35 53.7215C10.05 54.0882 10.8667 54.2715 11.8 54.2715C12.7333 54.2715 13.55 54.0882 14.25 53.7215C14.95 53.3548 15.5 52.8548 15.9 52.2215C16.2833 51.5882 16.475 50.8548 16.475 50.0215ZM18.3 35.0732C18.3 36.2399 18.0333 37.2899 17.5 38.2232C16.9667 39.1566 16.2167 39.8982 15.25 40.4482C14.2667 40.9816 13.1167 41.2482 11.8 41.2482C10.4833 41.2482 9.34167 40.9732 8.375 40.4232C7.39167 39.8732 6.63333 39.1316 6.1 38.1982C5.56667 37.2482 5.3 36.1899 5.3 35.0232C5.3 33.8566 5.56667 32.8066 6.1 31.8732C6.63333 30.9399 7.39167 30.2066 8.375 29.6732C9.34167 29.1232 10.4833 28.8482 11.8 28.8482C13.1167 28.8482 14.2667 29.1232 15.25 29.6732C16.2167 30.2232 16.9667 30.9732 17.5 31.9232C18.0333 32.8566 18.3 33.9066 18.3 35.0732ZM16.5 35.0732C16.5 34.3566 16.325 33.6899 15.975 33.0732C15.625 32.4566 15.1 31.9566 14.4 31.5732C13.7 31.1899 12.8333 30.9982 11.8 30.9982C10.7667 30.9982 9.9 31.1899 9.2 31.5732C8.5 31.9399 7.975 32.4316 7.625 33.0482C7.275 33.6649 7.1 34.3232 7.1 35.0232C7.1 35.7399 7.275 36.4066 7.625 37.0232C7.975 37.6399 8.5 38.1399 9.2 38.5232C9.9 38.9066 10.7667 39.0982 11.8 39.0982C12.8333 39.0982 13.7 38.9066 14.4 38.5232C15.1 38.1399 15.625 37.6482 15.975 37.0482C16.325 36.4316 16.5 35.7732 16.5 35.0732ZM18.3 20.2783C18.3 21.445 18.0333 22.495 17.5 23.4283C16.9667 24.3617 16.2167 25.1033 15.25 25.6533C14.2667 26.1867 13.1167 26.4533 11.8 26.4533C10.4833 26.4533 9.34167 26.1783 8.375 25.6283C7.39167 25.0783 6.63333 24.3367 6.1 23.4033C5.56667 22.4533 5.3 21.395 5.3 20.2283C5.3 19.0617 5.56667 18.0117 6.1 17.0783C6.63333 16.145 7.39167 15.4117 8.375 14.8783C9.34167 14.3283 10.4833 14.0533 11.8 14.0533C13.1167 14.0533 14.2667 14.3283 15.25 14.8783C16.2167 15.4283 16.9667 16.1783 17.5 17.1283C18.0333 18.0617 18.3 19.1117 18.3 20.2783ZM16.5 20.2783C16.5 19.5617 16.325 18.895 15.975 18.2783C15.625 17.6617 15.1 17.1617 14.4 16.7783C13.7 16.395 12.8333 16.2033 11.8 16.2033C10.7667 16.2033 9.9 16.395 9.2 16.7783C8.5 17.145 7.975 17.6367 7.625 18.2533C7.275 18.87 7.1 19.5283 7.1 20.2283C7.1 20.945 7.275 21.6117 7.625 22.2283C7.975 22.845 8.5 23.345 9.2 23.7283C9.9 24.1117 10.7667 24.3033 11.8 24.3033C12.8333 24.3033 13.7 24.1117 14.4 23.7283C15.1 23.345 15.625 22.8533 15.975 22.2533C16.325 21.6367 16.5 20.9783 16.5 20.2783ZM18 11.1334H-7.15256e-07V9.0334H10.825L5.6 3.9584V1.3834L11.2 6.8834L18 0.683398V3.3584L11.575 9.0334H18V11.1334Z" fill="white" fill-opacity="0.6"/>
</svg>
