<?xml version="1.0" encoding="UTF-8" standalone="no"?>
<!DOCTYPE svg PUBLIC "-//W3C//DTD SVG 1.1//EN" "http://www.w3.org/Graphics/SVG/1.1/DTD/svg11.dtd">
<svg version="1.1" xmlns="http://www.w3.org/2000/svg" xmlns:xlink="http://www.w3.org/1999/xlink" preserveAspectRatio="xMidYMid meet" viewBox="13.788539260087049 1.5001019142754188 513.1542361197025 525.0329496754528" width="509.15" height="521.03"><defs><path d="M36.62 68.29C27.9 69.5 21.75 77.62 22.96 86.33C25.88 107.47 40.48 213.13 66.77 403.32L478.85 346.37C452.57 156.17 437.96 50.51 435.04 29.38C433.84 20.66 425.72 14.52 417 15.72C340.93 26.24 74.66 63.04 36.62 68.29Z" id="c2X92Ie0f"></path><path d="M78.17 135.24L395.16 91.42L421.45 281.62L104.46 325.43L78.17 135.24Z" id="f3dlmNLUKY"></path><path d="M154.46 278.14C153.8 273.38 153.44 270.74 153.36 270.21C152.16 261.5 144.04 255.35 135.32 256.55C134.79 256.63 132.15 256.99 127.4 257.65L118.64 194.25C123.39 193.59 126.03 193.23 126.56 193.16C135.28 191.95 141.42 183.83 140.22 175.12C140.15 174.59 139.78 171.95 139.12 167.19L345.17 138.71C345.82 143.47 346.19 146.11 346.26 146.64C347.47 155.36 355.58 161.5 364.3 160.3C364.83 160.22 367.47 159.86 372.22 159.2L380.99 222.6C376.23 223.26 373.59 223.62 373.06 223.69C364.35 224.9 358.2 233.02 359.4 241.73C359.48 242.26 359.84 244.9 360.5 249.66L154.46 278.14Z" id="b21amphdYs"></path><path d="M296.26 193.93L343.81 187.36L346 203.21L298.45 209.78L296.26 193.93Z" id="f2fmFousSg"></path><path d="M478.85 346.37L66.77 403.32L51.76 470C54.39 489.02 55.85 499.59 56.14 501.7C57.35 510.42 65.46 516.57 74.18 515.36C116.97 509.45 459.32 462.13 502.11 456.22C510.83 455.01 516.98 446.89 515.77 438.18C515.48 436.06 514.02 425.5 511.39 406.48L478.85 346.37Z" id="amCQY5Ew8"></path><path d="M51.76 470L511.39 406.48C514.02 425.5 515.48 436.06 515.77 438.18C516.98 446.89 510.83 455.01 502.11 456.22C459.32 462.13 116.97 509.45 74.18 515.36C65.46 516.57 57.35 510.42 56.14 501.7C55.56 497.48 54.1 486.91 51.76 470Z" id="dPZl9VtI7"></path><path d="M246.53 184.65C233.4 186.47 224.22 198.58 226.04 211.71C227.85 224.84 239.97 234.01 253.1 232.2C266.23 230.38 275.4 218.27 273.59 205.14C271.77 192.01 259.66 182.84 246.53 184.65Z" id="c5NoycPgOw"></path><path d="M304.56 61.14L271.19 35.87L296.46 2.5L309.08 12.06L293.38 32.81L314.12 48.51L304.56 61.14Z" id="ccStLsi4z"></path><path d="M318.11 118.23L315.91 102.38C339.69 99.09 352.9 97.27 355.54 96.9C372.97 94.49 385.26 78.25 382.86 60.82C380.45 43.39 364.21 31.09 346.78 33.5C342.55 34.09 321.42 37.01 283.38 42.27L281.19 26.42C319.23 21.16 340.36 18.24 344.58 17.65C370.74 14.04 395.09 32.48 398.7 58.63C402.32 84.78 383.88 109.13 357.73 112.75C352.45 113.48 339.24 115.31 318.11 118.23Z" id="i1Y6qM0jAQ"></path><path d="M218.44 390.44C180.4 395.69 159.26 398.61 155.04 399.2C128.89 402.81 104.53 384.37 100.92 358.22C97.3 332.07 115.74 307.72 141.89 304.1C146.65 303.44 170.42 300.16 213.22 294.24L215.41 310.09C172.61 316.01 148.84 319.29 144.09 319.95C126.65 322.36 114.36 338.6 116.77 356.03C119.18 373.47 135.41 385.76 152.85 383.35C157.07 382.76 178.21 379.84 216.24 374.59L218.44 390.44Z" id="f4G808DwMP"></path><path d="M153.62 213.64L201.17 207.07L203.36 222.92L155.81 229.49L153.62 213.64Z" id="b29Uv3t0TU"></path><path d="M203.17 414.35L190.54 404.79L206.25 384.04L185.5 368.34L195.06 355.71L228.43 380.98L203.17 414.35Z" id="bUu8WZct"></path><path d="M442.97 28.28C441.1 14.81 429.38 5.93 415.91 7.8C414.85 7.94 409.57 8.67 400.06 9.99L402.25 25.84C411.76 24.52 417.04 23.79 418.1 23.65C422.85 22.99 426.46 25.72 427.12 30.47C429.97 51.08 444.2 154.1 469.83 339.54L240.02 371.3L242.21 387.15L474.4 355.06L498.41 400.2L61.76 460.55L72.62 410.59L99.57 406.86L97.37 391.02L73.6 394.3C47.97 208.86 33.73 105.84 30.88 85.24C30.23 80.48 32.96 76.88 37.71 76.22C52.51 74.18 126.47 63.95 259.6 45.55L257.41 29.7C124.28 48.1 50.32 58.33 35.52 60.37C22.05 62.23 13.17 73.96 15.03 87.43C17.94 108.46 32.47 213.59 58.63 402.83L43.62 469.52C46.38 489.49 47.91 500.58 48.22 502.8C50.08 516.27 61.8 525.15 75.28 523.29C118.07 517.37 460.42 470.06 503.21 464.14C516.68 462.28 525.56 450.55 523.7 437.08C523.39 434.86 521.86 423.77 519.1 403.8L486.56 343.69C463.31 175.47 448.78 70.34 442.97 28.28ZM507.85 439.27C508.5 444.03 505.77 447.63 501.02 448.29C458.22 454.21 115.88 501.52 73.09 507.44C68.33 508.09 64.72 505.36 64.07 500.61C63.85 499.02 62.75 491.1 60.78 476.83L504.56 415.5C506.31 428.18 507.41 436.1 507.85 439.27Z" id="at2Uuvxd0"></path><path d="M218.11 212.81C220.52 230.24 236.76 242.53 254.19 240.12C271.63 237.71 283.92 221.48 281.51 204.04C279.1 186.61 262.86 174.32 245.43 176.73C228 179.14 215.7 195.37 218.11 212.81ZM233.96 210.62C232.76 201.9 238.9 193.78 247.62 192.58C256.34 191.37 264.46 197.52 265.66 206.24C266.87 214.95 260.72 223.07 252 224.27C243.29 225.48 235.17 219.33 233.96 210.62Z" id="a5bZfOrVtT"></path><path d="M296.26 193.93L343.81 187.36L346 203.21L298.45 209.78L296.26 193.93Z" id="cHe8svuXY"></path><path d="M70.25 136.33C88.65 269.47 98.87 343.43 100.92 358.22C104.53 384.37 128.89 402.81 155.04 399.2C158 398.79 172.79 396.74 199.42 393.06L190.54 404.79L203.17 414.35L228.43 380.98L195.06 355.71L185.5 368.34L197.23 377.21C170.6 380.9 155.81 382.94 152.85 383.35C135.41 385.76 119.18 373.47 116.77 356.03C114.36 338.6 126.65 322.36 144.09 319.95C163.1 317.32 258.2 304.18 429.37 280.52C410.97 147.39 400.75 73.42 398.7 58.63C395.09 32.48 370.74 14.04 344.58 17.65C341.63 18.06 326.83 20.11 300.21 23.79L309.08 12.06L296.46 2.5L271.19 35.87L304.56 61.14L314.12 48.51L302.4 39.64C329.02 35.96 343.82 33.91 346.78 33.5C364.21 31.09 380.45 43.39 382.86 60.82C385.26 78.25 372.97 94.49 355.54 96.9C355.54 96.9 260.44 110.04 70.25 136.33ZM411.33 266.86C249.67 289.21 159.86 301.62 141.89 304.1C130.01 305.74 119.46 311.24 111.84 320.37C110.27 309.01 102.42 252.22 88.29 149.99C249.95 127.65 339.77 115.23 357.73 112.75C369.62 111.11 380.16 105.61 387.78 96.48C390.92 119.2 398.77 175.99 411.33 266.86Z" id="c1M0ImrvVD"></path><path d="M351.99 129.69L130.1 160.36C131.42 169.87 132.15 175.16 132.29 176.21C132.95 180.97 130.22 184.57 125.47 185.23C124.41 185.38 119.13 186.11 109.62 187.42L120.57 266.67C130.08 265.35 135.36 264.62 136.42 264.48C141.17 263.82 144.78 266.55 145.44 271.31C145.58 272.36 146.31 277.65 147.63 287.16L369.52 256.49C368.2 246.98 367.47 241.7 367.33 240.64C366.67 235.88 369.4 232.28 374.16 231.62C375.21 231.47 380.5 230.74 390.01 229.43L379.05 150.18C369.54 151.5 364.26 152.23 363.2 152.37C358.45 153.03 354.84 150.3 354.19 145.54C353.89 143.43 353.16 138.15 351.99 129.69ZM371.97 215.77C358.5 217.63 349.62 229.36 351.48 242.83C332.46 245.46 180.31 266.49 161.29 269.12C159.43 255.65 147.7 246.77 134.23 248.63C133.57 243.87 128.31 205.84 127.66 201.08C141.13 199.22 150.01 187.49 148.14 174.02C167.16 171.39 319.32 150.36 338.34 147.73C340.2 161.21 351.92 170.08 365.4 168.22C366.71 177.73 370.65 206.26 371.97 215.77Z" id="a26VQU8"></path><path d="M153.62 213.64L201.17 207.07L203.36 222.92L155.81 229.49L153.62 213.64Z" id="crEMEfcXd"></path></defs><g><g><use xlink:href="#c2X92Ie0f" opacity="1" fill="#d4d0cc" fill-opacity="1"></use><g><use xlink:href="#c2X92Ie0f" opacity="1" fill-opacity="0" stroke="#000000" stroke-width="1" stroke-opacity="0"></use></g></g><g><use xlink:href="#f3dlmNLUKY" opacity="1" fill="#0ba84e" fill-opacity="1"></use><g><use xlink:href="#f3dlmNLUKY" opacity="1" fill-opacity="0" stroke="#000000" stroke-width="1" stroke-opacity="0"></use></g></g><g><use xlink:href="#b21amphdYs" opacity="1" fill="#06c15a" fill-opacity="1"></use><g><use xlink:href="#b21amphdYs" opacity="1" fill-opacity="0" stroke="#000000" stroke-width="1" stroke-opacity="0"></use></g></g><g><use xlink:href="#f2fmFousSg" opacity="1" fill="#ede064" fill-opacity="1"></use><g><use xlink:href="#f2fmFousSg" opacity="1" fill-opacity="0" stroke="#000000" stroke-width="1" stroke-opacity="0"></use></g></g><g><use xlink:href="#amCQY5Ew8" opacity="1" fill="#bdbbb9" fill-opacity="1"></use><g><use xlink:href="#amCQY5Ew8" opacity="1" fill-opacity="0" stroke="#000000" stroke-width="1" stroke-opacity="0"></use></g></g><g><use xlink:href="#dPZl9VtI7" opacity="1" fill="#999896" fill-opacity="1"></use><g><use xlink:href="#dPZl9VtI7" opacity="1" fill-opacity="0" stroke="#000000" stroke-width="1" stroke-opacity="0"></use></g></g><g><use xlink:href="#c5NoycPgOw" opacity="1" fill="#ede064" fill-opacity="1"></use><g><use xlink:href="#c5NoycPgOw" opacity="1" fill-opacity="0" stroke="#000000" stroke-width="1" stroke-opacity="0"></use></g></g><g><use xlink:href="#ccStLsi4z" opacity="1" fill="#24699c" fill-opacity="1"></use><g><use xlink:href="#ccStLsi4z" opacity="1" fill-opacity="0" stroke="#000000" stroke-width="1" stroke-opacity="0"></use></g></g><g><use xlink:href="#i1Y6qM0jAQ" opacity="1" fill="#24699c" fill-opacity="1"></use><g><use xlink:href="#i1Y6qM0jAQ" opacity="1" fill-opacity="0" stroke="#000000" stroke-width="1" stroke-opacity="0"></use></g></g><g><use xlink:href="#f4G808DwMP" opacity="1" fill="#24699c" fill-opacity="1"></use><g><use xlink:href="#f4G808DwMP" opacity="1" fill-opacity="0" stroke="#000000" stroke-width="1" stroke-opacity="0"></use></g></g><g><use xlink:href="#b29Uv3t0TU" opacity="1" fill="#ede064" fill-opacity="1"></use><g><use xlink:href="#b29Uv3t0TU" opacity="1" fill-opacity="0" stroke="#000000" stroke-width="1" stroke-opacity="0"></use></g></g><g><use xlink:href="#bUu8WZct" opacity="1" fill="#24699c" fill-opacity="1"></use><g><use xlink:href="#bUu8WZct" opacity="1" fill-opacity="0" stroke="#000000" stroke-width="1" stroke-opacity="0"></use></g></g><g><use xlink:href="#at2Uuvxd0" opacity="1" fill="#000000" fill-opacity="1"></use><g><use xlink:href="#at2Uuvxd0" opacity="1" fill-opacity="0" stroke="#000000" stroke-width="1" stroke-opacity="0"></use></g></g><g><use xlink:href="#a5bZfOrVtT" opacity="1" fill="#000000" fill-opacity="1"></use><g><use xlink:href="#a5bZfOrVtT" opacity="1" fill-opacity="0" stroke="#000000" stroke-width="1" stroke-opacity="0"></use></g></g><g><use xlink:href="#cHe8svuXY" opacity="1" fill="#000000" fill-opacity="1"></use><g><use xlink:href="#cHe8svuXY" opacity="1" fill-opacity="0" stroke="#000000" stroke-width="1" stroke-opacity="0"></use></g></g><g><use xlink:href="#c1M0ImrvVD" opacity="1" fill="#000000" fill-opacity="1"></use><g><use xlink:href="#c1M0ImrvVD" opacity="1" fill-opacity="0" stroke="#000000" stroke-width="1" stroke-opacity="0"></use></g></g><g><use xlink:href="#a26VQU8" opacity="1" fill="#000000" fill-opacity="1"></use><g><use xlink:href="#a26VQU8" opacity="1" fill-opacity="0" stroke="#000000" stroke-width="1" stroke-opacity="0"></use></g></g><g><use xlink:href="#crEMEfcXd" opacity="1" fill="#000000" fill-opacity="1"></use><g><use xlink:href="#crEMEfcXd" opacity="1" fill-opacity="0" stroke="#000000" stroke-width="1" stroke-opacity="0"></use></g></g></g></svg>