<svg id="Layer_1" enable-background="new 0 0 64 64" height="512" viewBox="0 0 64 64" width="512" xmlns="http://www.w3.org/2000/svg"><path d="m56 5h-48c-1.1 0-2 .9-2 2v40h52v-40c0-1.1-.9-2-2-2z" fill="#d4d0cc"/><path d="m12 14h40v24h-40z" fill="#0ba84e"/><path d="m19 33v-1c0-1.1-.9-2-2-2h-1v-8h1c1.1 0 2-.9 2-2v-1h26v1c0 1.1.9 2 2 2h1v8h-1c-1.1 0-2 .9-2 2v1z" fill="#06c15a"/><path d="m38 25h6v2h-6z" fill="#ede064"/><path d="m58 47h-52l-3 8v4c0 1.1.9 2 2 2h54c1.1 0 2-.9 2-2v-4z" fill="#bdbbb9"/><path d="m3 55h58v4c0 1.1-.9 2-2 2h-54c-1.1 0-2-.9-2-2z" fill="#999896"/><circle cx="32" cy="26" fill="#ede064" r="3"/><g fill="#24699c"><path d="m41.3 8.7-3.7-3.7 3.7-3.7 1.4 1.4-2.3 2.3 2.3 2.3z"/><path d="m47 16h-5v-2h5c2.2 0 4-1.8 4-4s-1.8-4-4-4h-8v-2h8c3.3 0 6 2.7 6 6s-2.7 6-6 6z"/><path d="m25 48h-8c-3.3 0-6-2.7-6-6s2.7-6 6-6h9v2h-9c-2.2 0-4 1.8-4 4s1.8 4 4 4h8z"/></g><path d="m20 25h6v2h-6z" fill="#ede064"/><path d="m22.7 50.7-1.4-1.4 2.3-2.3-2.3-2.3 1.4-1.4 3.7 3.7z" fill="#24699c"/><path d="m59 7c0-1.7-1.3-3-3-3h-2v2h2c.6 0 1 .4 1 1v39h-29v2h29.3l2.2 6h-55.1l2.2-6h3.4v-2h-3v-39c0-.6.4-1 1-1h28v-2h-28c-1.7 0-3 1.3-3 3v39.8l-3 8v4.2c0 1.7 1.3 3 3 3h54c1.7 0 3-1.3 3-3v-4.2l-3-8zm1 52c0 .6-.4 1-1 1h-54c-.6 0-1-.4-1-1v-3h56z"/><path d="m32 22c-2.2 0-4 1.8-4 4s1.8 4 4 4 4-1.8 4-4-1.8-4-4-4zm0 6c-1.1 0-2-.9-2-2s.9-2 2-2 2 .9 2 2-.9 2-2 2z"/><path d="m38 25h6v2h-6z"/><path d="m47 14h-36v28c0 3.3 2.7 6 6 6h5.6l-1.3 1.3 1.4 1.4 3.7-3.7-3.7-3.7-1.4 1.4 1.3 1.3h-5.6c-2.2 0-4-1.8-4-4s1.8-4 4-4h36v-28c0-3.3-2.7-6-6-6h-5.6l1.3-1.3-1.4-1.4-3.7 3.7 3.7 3.7 1.4-1.4-1.3-1.3h5.6c2.2 0 4 1.8 4 4s-1.8 4-4 4zm4 22h-34c-1.5 0-2.9.5-4 1.5v-21.5h34c1.5 0 2.9-.5 4-1.5z"/><path d="m46 20v-2h-28v2c0 .6-.4 1-1 1h-2v10h2c.6 0 1 .4 1 1v2h28v-2c0-.6.4-1 1-1h2v-10h-2c-.6 0-1-.4-1-1zm1 9c-1.7 0-3 1.3-3 3h-24c0-1.7-1.3-3-3-3v-6c1.7 0 3-1.3 3-3h24c0 1.7 1.3 3 3 3z"/><path d="m20 25h6v2h-6z"/></svg>