<?xml version="1.0" encoding="utf-8"?>
<!-- Generator: Adobe Illustrator 23.0.0, SVG Export Plug-In . SVG Version: 6.00 Build 0)  -->
<svg version="1.1" id="Capa_1" xmlns="http://www.w3.org/2000/svg" xmlns:xlink="http://www.w3.org/1999/xlink" x="0px" y="0px"
	 viewBox="0 0 33.6 88.7" style="enable-background:new 0 0 33.6 88.7;" xml:space="preserve">
<style type="text/css">
	.st0{enable-background:new    ;}
	.st1{fill:#333333;}
</style>
<g>
	<g id="gMIMla8F6">
		<g>
			<g>
				<g class="st0">
					<path class="st1" d="M15.8,72c-4.5,0-7.3-2.7-7.4-6.4c0-2,0.9-3.2,1.7-4.1l1.2,1c-0.7,0.7-1.3,1.6-1.3,3c0,2.8,2.2,4.6,5.7,4.6
						c3.5,0,5.7-1.7,5.7-4.7c0-1-0.3-2-0.8-2.5l-3.7,0l0,3l-1.5,0l0-4.6l5.9,0c1,0.9,1.7,2.4,1.7,4.3C23,69.3,20.3,72,15.8,72z"/>
					<path class="st1" d="M9,58.5c-0.7,0-1.1-0.5-1.1-1.2S8.3,56.1,9,56c0.7,0,1.1,0.5,1.1,1.2C10.1,57.9,9.7,58.5,9,58.5z
						 M12.3,58.1l0-1.8l10.4-0.1l0,1.8L12.3,58.1z"/>
					<path class="st1" d="M19.4,52.5l-5.8,0l0,1.6l-1.3,0l-0.1-1.6l-2.9-0.2l0-1.5l2.9,0l0-2.8l1.4,0l0,2.8l5.8,0c1.3,0,2-0.4,2-1.6
						c0-0.4-0.1-0.8-0.3-1.2l1.3-0.4c0.2,0.6,0.4,1.3,0.4,1.9C22.9,51.7,21.5,52.5,19.4,52.5z"/>
					<path class="st1" d="M7.3,45.6l0-1.8l4.2,0l2.1,0c-0.9-1-1.7-2-1.8-3.5c0-2.2,1.4-3.2,4.1-3.2l6.6,0l0,1.8l-6.4,0
						c-1.9,0-2.8,0.6-2.8,2c0,1.1,0.6,1.8,1.6,2.8l7.6-0.1l0,1.8L7.3,45.6z"/>
					<path class="st1" d="M18.7,34l-6.6,0l0-1.8l6.4,0c1.9,0,2.8-0.6,2.8-2c0-1.1-0.5-1.8-1.8-2.8L12,27.6l0-1.8l10.4-0.1l0,1.5
						l-1.6,0.2v0.1c1.1,1,1.9,2,1.9,3.4C22.8,33,21.4,34,18.7,34z"/>
					<path class="st1" d="M21.4,20.6L21.4,20.6l1.1,0.2l0,1.4L7.2,22.3l0-1.8l4.2,0l1.9,0c-0.8-0.9-1.5-2.1-1.5-3.3
						c0-2.7,2.1-4.2,5.3-4.2c3.6,0,5.7,2.1,5.7,4.5C22.7,18.6,22.2,19.7,21.4,20.6z M17,14.9c-2.3,0-3.8,0.8-3.8,2.8
						c0,0.9,0.5,1.8,1.4,2.8l5.5,0c0.8-0.9,1.1-1.9,1.1-2.5C21.2,16.2,19.6,14.9,17,14.9z"/>
				</g>
			</g>
		</g>
	</g>
</g>
<text transform="matrix(1 0 0 1 421 -73)" style="font-family:'ArialMT'; font-size:12px;">Lorem ipsum</text>
</svg>
