<?xml version="1.0" encoding="utf-8"?>
<!-- Generator: Adobe Illustrator 23.0.0, SVG Export Plug-In . SVG Version: 6.00 Build 0)  -->
<svg version="1.1" id="Layer_1" xmlns="http://www.w3.org/2000/svg" xmlns:xlink="http://www.w3.org/1999/xlink" x="0px" y="0px"
	 viewBox="0 0 124 124" style="enable-background:new 0 0 124 124;" xml:space="preserve">
<style type="text/css">
	.st0{fill:#E0E0E0;}
</style>
<g>
	<g>
		<path d="M0,0h124v124H0V0z M106.72,2.73C92.93,22.26,78.98,41.68,65.17,61.2c-2.06,2.99-4.04,6.07-6.62,8.66
			C46.74,52.62,34.25,35.85,22.31,18.7c-1.18-1.75-2.55-3.36-4.05-4.84c-0.23,27.69-0.04,55.39-0.1,83.08
			c0.67,0.01,2.02,0.02,2.69,0.02c0.15-25.01-0.32-50.04,0.23-75.05c12.19,16.6,23.94,33.53,35.98,50.24
			c-4.96,8.15-11.1,15.52-16.32,23.5c-0.92,1.29,0.68,2.02,1.74,2.15c22.15-31.26,44.4-62.47,66.6-93.69c0.53-1,0.89-2.06,1.09-3.19
			C108.67,0.75,107.46,1.46,106.72,2.73z M13.29,14.2c0.14,27.51,0.24,55.03,0.07,82.54c0.71,0.07,2.13,0.2,2.84,0.27
			c0.49-7.33,0.07-14.67,0.19-22.01c-0.23-20.34,0.25-40.68-0.28-61.01C15.4,14.04,13.99,14.14,13.29,14.2z M33.01,122.1
			c1.07,1.21,2.93,1.06,3.6-0.48c20.18-28.55,40.03-57.34,60.33-85.8c0.27,19.03-0.09,38.08,0.2,57.11c0.65-0.02,1.95-0.07,2.6-0.09
			c0.02-20.3-0.04-40.59,0.06-60.88c0-1.45-0.24-2.88-0.51-4.29C77.14,59.1,55.1,90.62,33.01,122.1z"/>
	</g>
</g>
<g>
	<path class="st0" d="M106.72,2.73c0.74-1.27,1.95-1.98,3.45-1.81c-0.2,1.13-0.56,2.19-1.09,3.19
		c-22.2,31.22-44.45,62.43-66.6,93.69c-1.06-0.13-2.66-0.86-1.74-2.15c5.22-7.98,11.36-15.35,16.32-23.5
		C45.02,55.44,33.27,38.51,21.08,21.91C20.53,46.92,21,71.95,20.85,96.96c-0.67,0-2.02-0.01-2.69-0.02
		c0.06-27.69-0.13-55.39,0.1-83.08c1.5,1.48,2.87,3.09,4.05,4.84c11.94,17.15,24.43,33.92,36.24,51.16
		c2.58-2.59,4.56-5.67,6.62-8.66C78.98,41.68,92.93,22.26,106.72,2.73z"/>
	<path class="st0" d="M13.29,14.2c0.7-0.06,2.11-0.16,2.82-0.21c0.53,20.33,0.05,40.67,0.28,61.01c-0.12,7.34,0.3,14.68-0.19,22.01
		c-0.71-0.07-2.13-0.2-2.84-0.27C13.53,69.23,13.43,41.71,13.29,14.2z"/>
	<path class="st0" d="M33.01,122.1c22.09-31.48,44.13-63,66.28-94.43c0.27,1.41,0.51,2.84,0.51,4.29
		c-0.1,20.29-0.04,40.58-0.06,60.88c-0.65,0.02-1.95,0.07-2.6,0.09c-0.29-19.03,0.07-38.08-0.2-57.11
		c-20.3,28.46-40.15,57.25-60.33,85.8C35.94,123.16,34.08,123.31,33.01,122.1z"/>
</g>
</svg>
