<svg width="63" height="178" viewBox="0 0 63 178" fill="none" xmlns="http://www.w3.org/2000/svg">
<line opacity="0.6" x1="11" y1="0.99422" x2="12" y2="173.994" stroke="#EEEEEE" stroke-width="2"/>
<path opacity="0.6" d="M1 165L12 176L23 165" stroke="white" stroke-width="2"/>
<path opacity="0.6" d="M38 8.59219L55.5 8.59219V14.2422C55.5 15.6089 55.275 16.7255 54.825 17.5922C54.375 18.4589 53.7583 19.1005 52.975 19.5172C52.1917 19.9339 51.325 20.1422 50.375 20.1422C49.275 20.1422 48.2833 19.8422 47.4 19.2422C46.5167 18.6589 45.8917 17.7422 45.525 16.4922L38 20.3172V17.8422L45.225 14.2922V14.1422V10.6922L38 10.6922V8.59219ZM46.875 10.6922V14.0922C46.875 15.4422 47.2 16.4255 47.85 17.0422C48.5 17.6589 49.3333 17.9672 50.35 17.9672C51.3833 17.9672 52.2 17.6589 52.8 17.0422C53.4167 16.4422 53.725 15.4505 53.725 14.0672V10.6922H46.875ZM38 25.9115H55.5V36.7365H53.775V28.0115H47.675V35.9865H45.975V28.0115H39.725V36.7365H38V25.9115ZM38 41.4229L55.5 47.8729V50.0979L38 56.5229V54.2979L42.5 52.6979V45.2479L38 43.6229V41.4229ZM44.2 45.8729V52.0729L52.85 48.9729L44.2 45.8729ZM38 61.6244H55.5V66.9994C55.5 70.0827 54.7167 72.3494 53.15 73.7994C51.5833 75.2661 49.4333 75.9994 46.7 75.9994C44.0167 75.9994 41.8917 75.2661 40.325 73.7994C38.775 72.3494 38 70.0827 38 66.9994V61.6244ZM39.75 63.7244V66.9494C39.75 68.6494 40.025 69.9994 40.575 70.9994C41.1417 72.0161 41.9417 72.7411 42.975 73.1744C44.025 73.6077 45.2667 73.8244 46.7 73.8244C48.1667 73.8244 49.425 73.6077 50.475 73.1744C51.525 72.7411 52.3333 72.0161 52.9 70.9994C53.4667 69.9994 53.75 68.6494 53.75 66.9494V63.7244H39.75ZM38 90.6479H55.5V93.0979L43.3 99.3979L55.5 105.648V108.123H38V106.023H51.75L40.5 100.173V98.5979L51.725 92.7479H38V90.6479ZM37.7 122.265C37.7 120.548 38.075 119.04 38.825 117.74C39.5917 116.457 40.6583 115.448 42.025 114.715C43.3917 113.998 44.9667 113.64 46.75 113.64C48.5333 113.64 50.1 113.998 51.45 114.715C52.8167 115.448 53.8833 116.457 54.65 117.74C55.4167 119.04 55.8 120.548 55.8 122.265C55.8 123.998 55.4167 125.507 54.65 126.79C53.8833 128.09 52.8167 129.098 51.45 129.815C50.1 130.532 48.5333 130.89 46.75 130.89C44.9667 130.89 43.3917 130.532 42.025 129.815C40.6583 129.098 39.5917 128.09 38.825 126.79C38.075 125.507 37.7 123.998 37.7 122.265ZM39.55 122.265C39.55 123.548 39.8333 124.673 40.4 125.64C40.9833 126.623 41.8083 127.382 42.875 127.915C43.9583 128.465 45.25 128.74 46.75 128.74C48.25 128.74 49.5333 128.465 50.6 127.915C51.6667 127.382 52.4833 126.623 53.05 125.64C53.6333 124.673 53.925 123.548 53.925 122.265C53.925 120.982 53.6333 119.848 53.05 118.865C52.4833 117.898 51.6667 117.14 50.6 116.59C49.5333 116.057 48.25 115.79 46.75 115.79C45.25 115.79 43.9583 116.057 42.875 116.59C41.8083 117.14 40.9833 117.898 40.4 118.865C39.8333 119.848 39.55 120.982 39.55 122.265ZM38 136.419H55.5V142.069C55.5 143.436 55.275 144.553 54.825 145.419C54.375 146.286 53.7583 146.928 52.975 147.344C52.1917 147.761 51.325 147.969 50.375 147.969C49.275 147.969 48.2833 147.669 47.4 147.069C46.5167 146.486 45.8917 145.569 45.525 144.319L38 148.144V145.669L45.225 142.119V141.969V138.519H38V136.419ZM46.875 138.519V141.919C46.875 143.269 47.2 144.253 47.85 144.869C48.5 145.486 49.3333 145.794 50.35 145.794C51.3833 145.794 52.2 145.486 52.8 144.869C53.4167 144.269 53.725 143.278 53.725 141.894V138.519H46.875ZM38 153.739H55.5V164.564H53.775V155.839H47.675V163.814H45.975V155.839H39.725V164.564H38V153.739Z" fill="#EEEEEE"/>
</svg>
