<?xml version="1.0" encoding="utf-8"?>
<!-- Generator: Adobe Illustrator 23.0.0, SVG Export Plug-In . SVG Version: 6.00 Build 0)  -->
<svg version="1.1" id="Capa_1" xmlns="http://www.w3.org/2000/svg" xmlns:xlink="http://www.w3.org/1999/xlink" x="0px" y="0px"
	 viewBox="0 0 496 496" style="enable-background:new 0 0 496 496;" xml:space="preserve">
<style type="text/css">
	.st0{fill:#838F9B;}
	.st1{fill:#E2E3E5;}
	.st2{fill:#F0F0F2;}
	.st3{fill:#B4DD7F;}
</style>
<g>
	<path class="st0" d="M329,408.8c4.6-5.7,7-12.7,7-20V376h152v40c0,13.3-10.7,24-24,24H304L329,408.8z"/>
	<path class="st0" d="M488,128v24H280v-24c0-13.3,10.7-24,24-24h160C477.3,104,488,114.7,488,128z"/>
	<path class="st0" d="M216,128v24H8v-24c0-13.3,10.7-24,24-24h160C205.3,104,216,114.7,216,128z"/>
	<path class="st0" d="M167,408.8l25,31.2H32c-13.3,0-24-10.7-24-24v-40h152v12.8C160,396.1,162.5,403.1,167,408.8z"/>
</g>
<path class="st1" d="M290.7,240.2c-2.6-0.5-5.2-0.2-7.5,0.5L280,240v-88h208v224H336v-87.1c0-8-5.4-15.4-13.3-16.6
	c-10.1-1.7-18.7,6.1-18.7,15.8v-31.1C304,248.9,298.6,241.5,290.7,240.2z"/>
<path class="st1" d="M216,176l0.9,1.8c-5.4,2.7-8.9,8.7-8.9,15.1V320c0-11-4.5-21-11.7-28.3C189,284.5,179,280,168,280
	c-4.4,0-8,3.6-8,8v88H8V152h208V176z"/>
<path class="st2" d="M290.7,240.2c7.8,1.3,13.3,8.6,13.3,16.6V288c0-9.7,8.6-17.4,18.7-15.8c7.8,1.3,13.3,8.6,13.3,16.6v99.9
	c0,7.3-2.5,14.3-7,20L304,440v48H192v-48l-25-31.2c-4.6-5.7-7-12.7-7-20V288c0-4.4,3.6-8,8-8c11,0,21,4.5,28.3,11.7
	C203.5,299,208,309,208,320V192.9c0-6.4,3.4-12.4,8.9-15.1c1.4-0.8,2.8-1.3,4.4-1.5c10.1-1.7,18.7,6.1,18.7,15.8v48
	c0-9.7,8.6-17.4,18.7-15.8c7.8,1.3,13.3,8.6,13.3,16.6V256c0-7.1,4.7-13.2,11.2-15.3C285.5,240,288.1,239.8,290.7,240.2z"/>
<path class="st3" d="M312,104c0-35.3-28.7-64-64-64s-64,28.7-64,64h-32c0-53,43-96,96-96s96,43,96,96H312z"/>
<path d="M464,96H351.6C347.5,42.4,302.6,0,248,0s-99.5,42.4-103.6,96H32c-17.6,0-32,14.4-32,32v288c0,17.6,14.4,32,32,32h152v48h128
	v-48h152c17.6,0,32-14.4,32-32V128C496,110.4,481.6,96,464,96z M480,128v16H288v-16c0-8.8,7.2-16,16-16h160
	C472.8,112,480,119.2,480,128z M324,264.3c-4.1-0.7-8.2-0.3-12,1v-8.5c0-12.1-8.6-22.7-20-24.5c-1.3-0.2-2.7-0.3-4-0.3v-72h192v208
	H344v-79.1C344,276.7,335.4,266.2,324,264.3z M239.5,173.7c-4.4-3.7-9.9-5.6-15.5-5.6V128c0-17.4-14-31.6-31.4-31.9
	C196.5,68.9,219.8,48,248,48s51.5,20.9,55.4,48.1C286,96.4,272,110.6,272,128v94.3c-3.3-3.1-7.4-5.3-12-6c-4.1-0.7-8.2-0.3-12,1V192
	C248,185,244.9,178.3,239.5,173.7z M152,288v80H16V160h192v14.4c-4.9,4.6-8,11.2-8,18.5v91.4c-8.5-7.6-19.7-12.3-32-12.3
	C159.2,272,152,279.2,152,288z M248,16c45.8,0,83.5,35.2,87.6,80h-16.1c-4-35.9-34.5-64-71.5-64s-67.5,28.1-71.5,64h-16.1
	C164.5,51.2,202.2,16,248,16z M32,112h160c8.8,0,16,7.2,16,16v16H16v-16C16,119.2,23.2,112,32,112z M16,416v-32h136v4.8
	c0,9,3.1,17.9,8.8,25l14.6,18.2H32C23.2,432,16,424.8,16,416z M296,480h-96v-42.8l-26.7-33.4c-3.4-4.2-5.3-9.6-5.3-15V288
	c17.6,0,32,14.4,32,32v32h16V192.9c0-4.3,2.9-8.1,6.6-8.7c2.4-0.4,4.8,0.2,6.6,1.8c1.8,1.5,2.8,3.7,2.8,6.1v160h16V240
	c0-2.4,1-4.6,2.8-6.1c1.8-1.5,4.2-2.2,6.6-1.8c3.7,0.6,6.6,4.4,6.6,8.7V352h16v-96c0-2.4,1-4.6,2.8-6.1c1.8-1.5,4.2-2.2,6.6-1.8
	c3.7,0.6,6.6,4.4,6.6,8.7V352h16v-64c0-2.4,1-4.6,2.8-6.1c1.8-1.5,4.2-2.2,6.6-1.8c3.7,0.6,6.6,4.4,6.6,8.7v99.9
	c0,5.4-1.9,10.8-5.3,15L296,437.2V480z M464,432H320.6l14.6-18.2c5.7-7.1,8.8-15.9,8.8-25V384h136v32C480,424.8,472.8,432,464,432z"
	/>
<path d="M104,248h16c4.4,0,8,3.6,8,8h16c0-13.2-10.8-24-24-24v-16h-16v16c-13.2,0-24,10.8-24,24s10.8,24,24,24h16c4.4,0,8,3.6,8,8
	s-3.6,8-8,8h-16c-4.4,0-8-3.6-8-8H80c0,13.2,10.8,24,24,24v16h16v-16c13.2,0,24-10.8,24-24s-10.8-24-24-24h-16c-4.4,0-8-3.6-8-8
	S99.6,248,104,248z"/>
<path d="M392,296h-16c-4.4,0-8-3.6-8-8h-16c0,13.2,10.8,24,24,24v16h16v-16c13.2,0,24-10.8,24-24s-10.8-24-24-24h-16
	c-4.4,0-8-3.6-8-8s3.6-8,8-8h16c4.4,0,8,3.6,8,8h16c0-13.2-10.8-24-24-24v-16h-16v16c-13.2,0-24,10.8-24,24s10.8,24,24,24h16
	c4.4,0,8,3.6,8,8S396.4,296,392,296z"/>
<path d="M80,400h64v16H80V400z"/>
<path d="M352,400h64v16h-64V400z"/>
</svg>
